<?xml version="1.0" encoding="UTF-8" standalone="no"?>
<!-- Generator: Adobe Illustrator 17.0.1, SVG Export Plug-In . SVG Version: 6.00 Build 0)  -->

<svg
   xmlns:dc="http://purl.org/dc/elements/1.1/"
   xmlns:cc="http://creativecommons.org/ns#"
   xmlns:rdf="http://www.w3.org/1999/02/22-rdf-syntax-ns#"
   xmlns:svg="http://www.w3.org/2000/svg"
   xmlns="http://www.w3.org/2000/svg"
   xmlns:sodipodi="http://sodipodi.sourceforge.net/DTD/sodipodi-0.dtd"
   xmlns:inkscape="http://www.inkscape.org/namespaces/inkscape"
   version="1.1"
   id="Layer_1"
   x="0px"
   y="0px"
   width="534"
   height="180"
   viewBox="0 0 534.00001 180"
   enable-background="new 0 0 177.795 60"
   xml:space="preserve"
   inkscape:version="0.48.4 r9939"
   sodipodi:docname="google.svg"><metadata
   id="metadata25"><rdf:RDF><cc:Work
       rdf:about=""><dc:format>image/svg+xml</dc:format><dc:type
         rdf:resource="http://purl.org/dc/dcmitype/StillImage" /></cc:Work></rdf:RDF></metadata><defs
   id="defs23" /><sodipodi:namedview
   pagecolor="#ffffff"
   bordercolor="#666666"
   borderopacity="1"
   objecttolerance="10"
   gridtolerance="10"
   guidetolerance="10"
   inkscape:pageopacity="0"
   inkscape:pageshadow="2"
   inkscape:window-width="1600"
   inkscape:window-height="837"
   id="namedview21"
   showgrid="false"
   inkscape:zoom="1.1374479"
   inkscape:cx="55.724673"
   inkscape:cy="39.905003"
   inkscape:window-x="-8"
   inkscape:window-y="-8"
   inkscape:window-maximized="1"
   inkscape:current-layer="Layer_1" />
<g
   id="g3"
   transform="matrix(2.9531861,0,0,2.9531861,4,1.404418)">
	<path
   clip-rule="evenodd"
   d="m 173.028,14.072 h 1.106 c 0.008,0.014 0.012,0.028 0.018,0.041 0.179,0.394 0.361,0.786 0.526,1.182 0.181,0.444 0.341,0.896 0.536,1.335 0.008,0.013 0.014,0.027 0.018,0.041 0.142,-0.323 0.365,-0.845 0.508,-1.168 0.133,-0.299 0.267,-0.605 0.401,-0.905 0.052,-0.116 0.062,-0.139 0.062,-0.181 0,-0.101 -0.104,-0.101 -0.195,-0.101 l -0.406,0.018 0.406,-0.264 h 1.483 l -0.106,0.102 c -0.108,0.097 -0.163,0.166 -0.163,0.356 0,0.065 0.006,0.128 0.016,0.198 0.026,0.291 0.05,0.582 0.072,0.873 0.034,0.384 0.07,0.767 0.139,1.145 0.06,0.31 0.126,0.421 0.347,0.587 -0.245,0.046 -0.411,0.069 -0.658,0.069 -0.1,0 -0.275,0 -0.436,-0.12 -0.189,-0.148 -0.217,-0.384 -0.249,-0.804 -0.028,-0.287 -0.056,-0.573 -0.08,-0.86 -0.018,-0.272 -0.028,-0.545 -0.054,-0.817 l -0.006,-0.055 -0.028,0.06 c -0.161,0.35 -0.309,0.711 -0.466,1.062 -0.365,0.841 -0.391,0.896 -0.464,1.122 l 0.05,0.138 c -0.134,0.033 -0.662,0.207 -0.855,0.282 -0.149,-0.412 -0.67,-1.75 -1.084,-2.664 -0.042,0.388 -0.08,0.776 -0.116,1.163 -0.012,0.129 -0.09,0.993 -0.09,1.072 0,0.101 0.024,0.128 0.205,0.147 l 0.405,0.06 -0.235,0.143 h -0.859 l 0.12,-0.143 c 0.024,-0.032 0.046,-0.06 0.06,-0.101 0.028,-0.074 0.042,-0.204 0.06,-0.389 0.034,-0.282 0.072,-0.559 0.104,-0.84 0.018,-0.176 0.104,-1.034 0.128,-1.233 0.006,-0.047 0.01,-0.097 0.01,-0.143 0,-0.12 -0.046,-0.18 -0.185,-0.18 -0.064,0 -0.361,0.008 -0.428,0.008 l 0.383,-0.236 0,0 z"
   id="path5"
   inkscape:connector-curvature="0"
   style="fill:#6d6e71;fill-rule:evenodd" />
	<path
   clip-rule="evenodd"
   d="m 172.825,14.072 -0.201,0.471 -0.207,0.093 c 0.012,-0.046 0.05,-0.217 0.05,-0.235 0,-0.106 -0.124,-0.111 -0.253,-0.111 l -0.644,0.005 c -0.056,1.801 -0.056,1.957 -0.056,2.202 0,0.13 0,0.236 0.01,0.393 0.014,0.2 0.078,0.241 0.291,0.254 l 0.393,0.042 -0.301,0.148 h -1.538 l 0.104,-0.148 c 0.102,-0.152 0.116,-0.175 0.116,-0.278 0.004,-0.102 0,-0.577 0,-0.683 0,-0.194 0,-0.392 0.004,-0.586 0.014,-0.397 0.038,-0.795 0.038,-1.187 0,-0.065 -0.006,-0.139 -0.006,-0.156 h -0.562 c -0.283,0.009 -0.287,0.017 -0.44,0.249 l -0.245,0.093 0.245,-0.564 h 3.202 l 0,-0.002 z"
   id="path7"
   inkscape:connector-curvature="0"
   style="fill:#6d6e71;fill-rule:evenodd" />
	<path
   clip-rule="evenodd"
   d="m 166.847,40.433 c -0.65,0.355 -1.299,0.768 -1.949,1.064 -1.953,0.887 -3.962,1.123 -5.735,1.123 -1.891,0 -4.847,-0.119 -7.862,-2.305 -4.197,-2.956 -6.028,-8.04 -6.028,-12.473 0,-9.162 7.447,-13.655 13.537,-13.655 2.126,0 4.314,0.532 6.088,1.655 2.953,1.95 3.723,4.492 4.135,5.852 l -13.89,5.615 -4.552,0.356 c 1.479,7.507 6.56,11.88 12.176,11.88 3.015,0 5.203,-1.063 7.214,-2.069 l -3.134,2.957 0,0 z M 161.29,22.819 c 1.122,-0.415 1.714,-0.769 1.714,-1.597 0,-2.364 -2.658,-5.084 -5.853,-5.084 -2.363,0 -6.796,1.833 -6.796,8.218 0,1.005 0.116,2.069 0.175,3.133 l 10.76,-4.67 0,0 z"
   id="path9"
   inkscape:connector-curvature="0"
   style="fill:#ef3e35;fill-rule:evenodd" />
	<path
   clip-rule="evenodd"
   d="m 143.851,41.734 h -10.462 c 1.359,-1.773 1.596,-1.951 1.596,-3.133 v -9.635 c 0,-4.61 0.06,-11.172 0.235,-17.32 0.06,-3.015 0.297,-6.798 0.355,-9.518 h -4.609 L 135.399,0 h 8.452 c -1.831,1.065 -2.423,1.419 -2.658,3.489 -0.472,4.551 -0.532,11.762 -0.532,20.156 V 37.3 c 0,2.306 0.413,2.66 2.366,2.838 1.004,0.119 2.009,0.177 3.013,0.295 l -2.189,1.301 0,0 z"
   id="path11"
   inkscape:connector-curvature="0"
   style="fill:#2fb457;fill-rule:evenodd" />
	<path
   clip-rule="evenodd"
   d="m 124.463,17.084 c 1.359,1.123 4.197,3.487 4.197,7.98 0,4.374 -2.483,6.443 -4.964,8.394 -0.769,0.768 -1.656,1.597 -1.656,2.897 0,1.3 0.887,2.009 1.537,2.541 l 2.128,1.656 c 2.603,2.186 4.964,4.197 4.964,8.276 0,5.556 -5.379,11.172 -15.546,11.172 -8.571,0 -12.708,-4.079 -12.708,-8.454 0,-2.128 1.064,-5.144 4.554,-7.212 3.663,-2.246 8.629,-2.541 11.287,-2.718 -0.827,-1.064 -1.772,-2.187 -1.772,-4.02 0,-1.005 0.295,-1.596 0.592,-2.306 -0.652,0.059 -1.301,0.119 -1.893,0.119 -6.265,0 -9.813,-4.67 -9.813,-9.281 0,-2.72 1.242,-5.734 3.784,-7.921 3.37,-2.779 7.388,-3.251 10.58,-3.251 h 12.176 l -3.782,2.128 h -3.665 l 0,0 z m -4.197,26.246 c -0.472,-0.06 -0.769,-0.06 -1.359,-0.06 -0.532,0 -3.725,0.119 -6.208,0.947 -1.299,0.473 -5.084,1.891 -5.084,6.089 0,4.196 4.079,7.21 10.405,7.21 5.676,0 8.691,-2.718 8.691,-6.382 0,-3.016 -1.951,-4.612 -6.445,-7.804 l 0,0 z m 1.716,-11.231 c 1.357,-1.36 1.477,-3.252 1.477,-4.316 0,-4.256 -2.541,-10.877 -7.449,-10.877 -1.537,0 -3.191,0.769 -4.137,1.951 -1.004,1.241 -1.301,2.837 -1.301,4.374 0,3.96 2.306,10.522 7.389,10.522 1.476,10e-4 3.074,-0.709 4.021,-1.654 l 0,0 z"
   id="path13"
   inkscape:connector-curvature="0"
   style="fill:#0075bf;fill-rule:evenodd" />
	<path
   clip-rule="evenodd"
   d="m 87.813,42.502 c -9.399,0 -14.423,-7.329 -14.423,-13.949 0,-7.744 6.325,-14.365 15.309,-14.365 8.691,0 14.13,6.798 14.13,13.951 -10e-4,6.974 -5.381,14.363 -15.016,14.363 l 0,0 z m 7.389,-4.787 c 1.419,-1.892 1.774,-4.257 1.774,-6.562 0,-5.202 -2.483,-15.133 -9.813,-15.133 -1.95,0 -3.901,0.769 -5.32,2.01 -2.304,2.069 -2.719,4.67 -2.719,7.212 0,5.852 2.897,15.487 10.048,15.487 2.305,0 4.671,-1.123 6.03,-3.014 l 0,0 z"
   id="path15"
   inkscape:connector-curvature="0"
   style="fill:#ffdf1c;fill-rule:evenodd" />
	<path
   clip-rule="evenodd"
   d="m 56.365,42.502 c -9.399,0 -14.424,-7.329 -14.424,-13.949 0,-7.744 6.325,-14.365 15.31,-14.365 8.689,0 14.127,6.798 14.127,13.951 0.001,6.974 -5.377,14.363 -15.013,14.363 l 0,0 z m 7.388,-4.787 c 1.419,-1.892 1.774,-4.257 1.774,-6.562 0,-5.202 -2.482,-15.133 -9.812,-15.133 -1.951,0 -3.902,0.769 -5.321,2.01 -2.305,2.069 -2.719,4.67 -2.719,7.212 0,5.852 2.897,15.487 10.05,15.487 2.305,0 4.669,-1.123 6.028,-3.014 l 0,0 z"
   id="path17"
   inkscape:connector-curvature="0"
   style="fill:#ef3e35;fill-rule:evenodd" />
	<path
   clip-rule="evenodd"
   d="m 38.183,40.44 -7.925,1.827 C 27.044,42.766 24.161,43.21 21.114,43.21 5.818,43.21 0,31.961 0,23.148 0,12.397 8.258,2.422 22.389,2.422 c 2.993,0 5.875,0.444 8.479,1.164 4.156,1.164 6.097,2.605 7.315,3.437 L 33.584,11.4 31.645,11.843 33.03,9.626 C 31.146,7.799 27.709,4.418 21.171,4.418 c -8.758,0 -15.352,6.65 -15.352,16.349 0,10.418 7.538,20.227 19.618,20.227 3.548,0 5.376,-0.72 7.038,-1.385 v -8.923 l -8.368,0.444 4.434,-2.383 H 40.29 l -1.44,1.385 c -0.389,0.332 -0.444,0.443 -0.555,0.887 -0.055,0.499 -0.111,2.106 -0.111,2.661 v 6.76 l -10e-4,0 z"
   id="path19"
   inkscape:connector-curvature="0"
   style="fill:#0075bf;fill-rule:evenodd" />
</g>
</svg>